{
  "accessors": [
    {
      "bufferView": 2,
      "componentType": 5126,
      "count": 3640,
      "max": [
        58.436687469482422,
        31.012222290039062,
        48.317535400390625
      ],
      "min": [
        -58.436687469482422,
        -31.012229919433594,
        -6.8577242018363904e-06
      ],
      "type": "VEC3"
    },
    {
      "bufferView": 2,
      "byteOffset": 43680,
      "componentType": 5126,
      "count": 3640,
      "max": [
        1,
        1,
        1
      ],
      "min": [
        -1,
        -1,
        -1
      ],
      "type": "VEC3"
    },
    {
      "bufferView": 3,
      "componentType": 5126,
      "count": 3640,
      "max": [
        1,
        1,
        1,
        1
      ],
      "min": [
        -1,
        -1,
        -1,
        -1
      ],
      "type": "VEC4"
    },
    {
      "bufferView": 1,
      "componentType": 5126,
      "count": 3640,
      "max": [
        0.98748177289962769,
        0.99214410781860352
      ],
      "min": [
        0.014793799258768559,
        0.0021307878196239471
      ],
      "type": "VEC2"
    },
    {
      "bufferView": 0,
      "componentType": 5125,
      "count": 9480,
      "max": [
        3639
      ],
      "min": [
        0
      ],
      "type": "SCALAR"
    },
    {
      "bufferView": 2,
      "byteOffset": 87360,
      "componentType": 5126,
      "count": 1193,
      "max": [
        55.955524444580078,
        0.30316546559333801,
        25.983633041381836
      ],
      "min": [
        -55.955524444580078,
        -58.256298065185547,
        -0.30317136645317078
      ],
      "type": "VEC3"
    },
    {
      "bufferView": 2,
      "byteOffset": 101676,
      "componentType": 5126,
      "count": 1193,
      "max": [
        1,
        1,
        1
      ],
      "min": [
        -1,
        -1,
        -0.99982082843780518
      ],
      "type": "VEC3"
    },
    {
      "bufferView": 3,
      "byteOffset": 58240,
      "componentType": 5126,
      "count": 1193,
      "max": [
        1,
        1,
        0.99419325590133667,
        1
      ],
      "min": [
        -1,
        -0.98576468229293823,
        -1,
        -1
      ],
      "type": "VEC4"
    },
    {
      "bufferView": 1,
      "byteOffset": 29120,
      "componentType": 5126,
      "count": 1193,
      "max": [
        0.85980832576751709,
        0.99065721035003662
      ],
      "min": [
        0.013479357585310936,
        0.0061024846509099007
      ],
      "type": "VEC2"
    },
    {
      "bufferView": 0,
      "byteOffset": 37920,
      "componentType": 5125,
      "count": 3327,
      "max": [
        1192
      ],
      "min": [
        0
      ],
      "type": "SCALAR"
    },
    {
      "bufferView": 2,
      "byteOffset": 115992,
      "componentType": 5126,
      "count": 123,
      "max": [
        1.9052715301513672,
        0.487762451171875,
        0.45788699388504028
      ],
      "min": [
        -1.9052715301513672,
        -0.72585678100585938,
        -12.434843063354492
      ],
      "type": "VEC3"
    },
    {
      "bufferView": 2,
      "byteOffset": 117468,
      "componentType": 5126,
      "count": 123,
      "max": [
        1,
        1,
        1
      ],
      "min": [
        -1,
        -1,
        -0.99657005071640015
      ],
      "type": "VEC3"
    },
    {
      "bufferView": 3,
      "byteOffset": 77328,
      "componentType": 5126,
      "count": 123,
      "max": [
        1,
        0.99989813566207886,
        0.88200247287750244,
        1
      ],
      "min": [
        -1,
        -0.99989849328994751,
        -0.88201165199279785,
        1
      ],
      "type": "VEC4"
    },
    {
      "bufferView": 1,
      "byteOffset": 38664,
      "componentType": 5126,
      "count": 123,
      "max": [
        0.74001383781433105,
        0.61370939016342163
      ],
      "min": [
        0.68737530708312988,
        0.46845948696136475
      ],
      "type": "VEC2"
    },
    {
      "bufferView": 0,
      "byteOffset": 51228,
      "componentType": 5125,
      "count": 279,
      "max": [
        122
      ],
      "min": [
        0
      ],
      "type": "SCALAR"
    },
    {
      "bufferView": 2,
      "byteOffset": 118944,
      "componentType": 5126,
      "count": 158,
      "max": [
        5.5673379898071289,
        0.37315750122070312,
        0.38586807250976562
      ],
      "min": [
        -5.5673384666442871,
        -3.54583740234375,
        -10.209847450256348
      ],
      "type": "VEC3"
    },
    {
      "bufferView": 2,
      "byteOffset": 120840,
      "componentType": 5126,
      "count": 158,
      "max": [
        0.98480767011642456,
        0.96440917253494263,
        0.93713879585266113
      ],
      "min": [
        -0.98480784893035889,
        -0.96495974063873291,
        -0.93713825941085815
      ],
      "type": "VEC3"
    },
    {
      "bufferView": 3,
      "byteOffset": 79296,
      "componentType": 5126,
      "count": 158,
      "max": [
        -0.012265986762940884,
        0.9970252513885498,
        0.75338643789291382,
        1
      ],
      "min": [
        -0.99995595216751099,
        -0.99775093793869019,
        -0.69643056392669678,
        1
      ],
      "type": "VEC4"
    },
    {
      "bufferView": 1,
      "byteOffset": 39648,
      "componentType": 5126,
      "count": 158,
      "max": [
        0.75778281688690186,
        0.88611996173858643
      ],
      "min": [
        0.67550039291381836,
        0.72124135494232178
      ],
      "type": "VEC2"
    },
    {
      "bufferView": 0,
      "byteOffset": 52344,
      "componentType": 5125,
      "count": 720,
      "max": [
        157
      ],
      "min": [
        0
      ],
      "type": "SCALAR"
    },
    {
      "bufferView": 4,
      "componentType": 5126,
      "count": 1,
      "max": [
        0
      ],
      "min": [
        0
      ],
      "type": "SCALAR"
    },
    {
      "bufferView": 5,
      "componentType": 5126,
      "count": 1,
      "max": [
        1.193757270812057e-06,
        0.41300582885742188,
        58.256294250488281
      ],
      "min": [
        1.193757270812057e-06,
        0.41300582885742188,
        58.256294250488281
      ],
      "type": "VEC3"
    },
    {
      "bufferView": 4,
      "byteOffset": 4,
      "componentType": 5126,
      "count": 98,
      "max": [
        3.3333332538604736
      ],
      "min": [
        0
      ],
      "type": "SCALAR"
    },
    {
      "bufferView": 6,
      "componentType": 5126,
      "count": 98,
      "max": [
        0.38514286279678345,
        0.0054600900039076805,
        0.0010894093429669738,
        1
      ],
      "min": [
        -0.50708639621734619,
        -0.0080007277429103851,
        -0.00023220956791192293,
        0.86189520359039307
      ],
      "type": "VEC4"
    },
    {
      "bufferView": 4,
      "byteOffset": 396,
      "componentType": 5126,
      "count": 67,
      "max": [
        2.9333333969116211
      ],
      "min": [
        0.5
      ],
      "type": "SCALAR"
    },
    {
      "bufferView": 6,
      "byteOffset": 1568,
      "componentType": 5126,
      "count": 67,
      "max": [
        2.7755575615628914e-17,
        0,
        0,
        1
      ],
      "min": [
        -0.34202015399932861,
        0,
        0,
        0.93969261646270752
      ],
      "type": "VEC4"
    },
    {
      "bufferView": 4,
      "byteOffset": 664,
      "componentType": 5126,
      "count": 89,
      "max": [
        3.3333332538604736
      ],
      "min": [
        0
      ],
      "type": "SCALAR"
    },
    {
      "bufferView": 6,
      "byteOffset": 2640,
      "componentType": 5126,
      "count": 89,
      "max": [
        3.3087224502121107e-24,
        0,
        0,
        1
      ],
      "min": [
        -0.71852421760559082,
        0,
        0,
        0.69550192356109619
      ],
      "type": "VEC4"
    }
  ],
  "animations": [
    {
      "channels": [
        {
          "sampler": 0,
          "target": {
            "node": 11,
            "path": "translation"
          }
        },
        {
          "sampler": 1,
          "target": {
            "node": 11,
            "path": "rotation"
          }
        },
        {
          "sampler": 2,
          "target": {
            "node": 14,
            "path": "rotation"
          }
        },
        {
          "sampler": 3,
          "target": {
            "node": 8,
            "path": "rotation"
          }
        }
      ],
      "name": "Take 001",
      "samplers": [
        {
          "input": 20,
          "interpolation": "LINEAR",
          "output": 21
        },
        {
          "input": 22,
          "interpolation": "LINEAR",
          "output": 23
        },
        {
          "input": 24,
          "interpolation": "LINEAR",
          "output": 25
        },
        {
          "input": 26,
          "interpolation": "LINEAR",
          "output": 27
        }
      ]
    }
  ],
  "asset": {
    "extras": {
      "author": "Mr2Garin (https://sketchfab.com/Mr2Garin)",
      "license": "CC-BY-4.0 (http://creativecommons.org/licenses/by/4.0/)",
      "source": "https://sketchfab.com/models/efc357374ecf4d17a36e85f1237e624c",
      "title": "Old Chest"
    },
    "generator": "Sketchfab-4.32.0",
    "version": "2.0"
  },
  "bufferViews": [
    {
      "buffer": 0,
      "byteLength": 55224,
      "byteOffset": 0,
      "name": "floatBufferViews",
      "target": 34963
    },
    {
      "buffer": 0,
      "byteLength": 40912,
      "byteOffset": 55224,
      "byteStride": 8,
      "name": "floatBufferViews",
      "target": 34962
    },
    {
      "buffer": 0,
      "byteLength": 122736,
      "byteOffset": 96136,
      "byteStride": 12,
      "name": "floatBufferViews",
      "target": 34962
    },
    {
      "buffer": 0,
      "byteLength": 81824,
      "byteOffset": 218872,
      "byteStride": 16,
      "name": "floatBufferViews",
      "target": 34962
    },
    {
      "buffer": 0,
      "byteLength": 1020,
      "byteOffset": 300696,
      "name": "floatBufferViews"
    },
    {
      "buffer": 0,
      "byteLength": 12,
      "byteOffset": 301716,
      "byteStride": 12,
      "name": "floatBufferViews"
    },
    {
      "buffer": 0,
      "byteLength": 4064,
      "byteOffset": 301728,
      "byteStride": 16,
      "name": "floatBufferViews"
    }
  ],
  "buffers": [
    {
      "byteLength": 305792,
      "uri": "scene.bin"
    }
  ],
  "images": [
    {
      "uri": "textures/Old_Chest_baseColor.png"
    },
    {
      "uri": "textures/Old_Chest_metallicRoughness.png"
    },
    {
      "uri": "textures/Old_Chest_normal.png"
    }
  ],
  "materials": [
    {
      "doubleSided": true,
      "emissiveFactor": [
        0,
        0,
        0
      ],
      "name": "Old_Chest",
      "normalTexture": {
        "index": 2,
        "scale": 1,
        "texCoord": 0
      },
      "occlusionTexture": {
        "index": 1,
        "strength": 1,
        "texCoord": 0
      },
      "pbrMetallicRoughness": {
        "baseColorFactor": [
          1,
          1,
          1,
          1
        ],
        "baseColorTexture": {
          "index": 0,
          "texCoord": 0
        },
        "metallicFactor": 1,
        "metallicRoughnessTexture": {
          "index": 1,
          "texCoord": 0
        },
        "roughnessFactor": 1
      }
    }
  ],
  "meshes": [
    {
      "name": "old_Chest_Old_Chest_0",
      "primitives": [
        {
          "attributes": {
            "NORMAL": 1,
            "POSITION": 0,
            "TANGENT": 2,
            "TEXCOORD_0": 3
          },
          "indices": 4,
          "material": 0,
          "mode": 4
        }
      ]
    },
    {
      "name": "old_Chest_top_Old_Chest_0",
      "primitives": [
        {
          "attributes": {
            "NORMAL": 6,
            "POSITION": 5,
            "TANGENT": 7,
            "TEXCOORD_0": 8
          },
          "indices": 9,
          "material": 0,
          "mode": 4
        }
      ]
    },
    {
      "name": "latch_Old_Chest_0",
      "primitives": [
        {
          "attributes": {
            "NORMAL": 11,
            "POSITION": 10,
            "TANGENT": 12,
            "TEXCOORD_0": 13
          },
          "indices": 14,
          "material": 0,
          "mode": 4
        }
      ]
    },
    {
      "name": "grip_Old_Chest_0",
      "primitives": [
        {
          "attributes": {
            "NORMAL": 16,
            "POSITION": 15,
            "TANGENT": 17,
            "TEXCOORD_0": 18
          },
          "indices": 19,
          "material": 0,
          "mode": 4
        }
      ]
    }
  ],
  "nodes": [
    {
      "children": [
        1
      ],
      "name": "RootNode (gltf orientation matrix)",
      "rotation": [
        -0.70710678118654746,
        -0,
        -0,
        0.70710678118654757
      ]
    },
    {
      "children": [
        2
      ],
      "name": "RootNode (model correction matrix)"
    },
    {
      "children": [
        3
      ],
      "matrix": [
        1,
        0,
        0,
        0,
        0,
        0,
        1,
        0,
        0,
        -1,
        0,
        0,
        0,
        0,
        0,
        1
      ],
      "name": "old_Chest.FBX"
    },
    {
      "children": [
        4
      ],
      "name": ""
    },
    {
      "children": [
        5
      ],
      "name": "RootNode"
    },
    {
      "children": [
        6,
        8
      ],
      "name": "old_Chest",
      "rotation": [
        2.1855694143368964e-08,
        0,
        0,
        1
      ],
      "translation": [
        6.0006300373061094e-06,
        -2.9385898869804805e-06,
        6.8118993112875614e-08
      ]
    },
    {
      "children": [
        7
      ],
      "matrix": [
        1,
        0,
        0,
        0,
        0,
        6.123233995736766e-17,
        -1,
        0,
        -0,
        1,
        6.123233995736766e-17,
        0,
        0,
        0,
        0,
        1
      ],
      "name": ""
    },
    {
      "mesh": 0,
      "name": "old_Chest_Old_Chest_0"
    },
    {
      "children": [
        9,
        11,
        14
      ],
      "name": "old_Chest_top",
      "rotation": [
        3.3087224502121107e-24,
        0,
        0,
        1
      ],
      "translation": [
        0,
        48.317367553710938,
        -29.611770629882812
      ]
    },
    {
      "children": [
        10
      ],
      "matrix": [
        1,
        0,
        0,
        0,
        0,
        6.123233995736766e-17,
        -1,
        0,
        -0,
        1,
        6.123233995736766e-17,
        0,
        0,
        3.814697265625e-06,
        3.814697265625e-06,
        1
      ],
      "name": ""
    },
    {
      "mesh": 1,
      "name": "old_Chest_top_Old_Chest_0"
    },
    {
      "children": [
        12
      ],
      "name": "latch",
      "translation": [
        1.193757270812057e-06,
        0.41300201416015625,
        58.256294250488281
      ]
    },
    {
      "children": [
        13
      ],
      "matrix": [
        1,
        0,
        0,
        0,
        0,
        6.123233995736766e-17,
        -1,
        0,
        -0,
        1,
        6.123233995736766e-17,
        0,
        0,
        0,
        7.62939453125e-06,
        1
      ],
      "name": ""
    },
    {
      "mesh": 2,
      "name": "latch_Old_Chest_0"
    },
    {
      "children": [
        15
      ],
      "name": "grip",
      "translation": [
        -0.10247248411178589,
        11.875534057617188,
        55.332260131835938
      ]
    },
    {
      "children": [
        16
      ],
      "matrix": [
        1,
        0,
        0,
        0,
        0,
        6.123233995736766e-17,
        -1,
        0,
        -0,
        1,
        6.123233995736766e-17,
        0,
        0,
        3.814697265625e-06,
        3.814697265625e-06,
        1
      ],
      "name": ""
    },
    {
      "mesh": 3,
      "name": "grip_Old_Chest_0"
    }
  ],
  "samplers": [
    {
      "magFilter": 9729,
      "minFilter": 9987,
      "wrapS": 10497,
      "wrapT": 10497
    }
  ],
  "scene": 0,
  "scenes": [
    {
      "name": "OSG_Scene",
      "nodes": [
        0
      ]
    }
  ],
  "textures": [
    {
      "sampler": 0,
      "source": 0
    },
    {
      "sampler": 0,
      "source": 1
    },
    {
      "sampler": 0,
      "source": 2
    }
  ]
}

